<svg xmlns="http://www.w3.org/2000/svg" width="43.642" height="41.577" viewBox="0 0 43.642 41.577"><g transform="translate(1.031 1)"><path d="M499.233,241.744v-9.112a1.1,1.1,0,0,0-1.095-1.095h0a1.1,1.1,0,0,0-1.095,1.095v9.112a1.1,1.1,0,0,1-1.064,1.092,60.9,60.9,0,0,0-17.2,3.087,1.093,1.093,0,0,1-1.306-1.55l19.692-37.363a1.1,1.1,0,0,1,1.937,0L518.8,244.372a1.093,1.093,0,0,1-1.306,1.55,60.892,60.892,0,0,0-17.193-3.087A1.1,1.1,0,0,1,499.233,241.744Z" transform="translate(-477.346 -206.425)" fill="none" stroke="#fe8101" stroke-width="2"/></g></svg>