<svg xmlns="http://www.w3.org/2000/svg" width="33.966" height="33.968" viewBox="0 0 33.966 33.968"><defs><style>.a{fill:rgba(255,255,255,0);stroke:#fbfbfb;}</style></defs><g transform="translate(0.5 0.5)"><path class="a" d="M386.93,213.237a9.288,9.288,0,1,1,6.571-15.859h0a9.288,9.288,0,0,1-6.571,15.859Zm0-17.38a8.091,8.091,0,1,0,5.72,2.371h0A8.04,8.04,0,0,0,386.93,195.858Z" transform="translate(-377.643 -194.661)"/><path class="a" d="M382.948,200.568a.6.6,0,0,1-.429-.181l-2.725-2.725a.6.6,0,1,1,.851-.851l2.725,2.725a.6.6,0,0,1,0,.851A.582.582,0,0,1,382.948,200.568Z" transform="translate(-364.787 -181.803)"/><path class="a" d="M393.093,213.354a1.692,1.692,0,0,1-1.2-.5l-11.569-11.569a1.693,1.693,0,0,1-.5-1.2,1.676,1.676,0,0,1,.5-1.189l1.558-1.558a1.681,1.681,0,0,1,2.386,0l11.569,11.569a1.692,1.692,0,0,1,.5,1.2,1.674,1.674,0,0,1-.5,1.189l-1.558,1.558A1.674,1.674,0,0,1,393.093,213.354Zm-10.018-15.3a.462.462,0,0,0-.339.143l-1.558,1.558a.481.481,0,0,0,0,.685l11.569,11.569a.5.5,0,0,0,.685,0l1.558-1.558h0a.481.481,0,0,0,0-.685L383.421,198.2A.479.479,0,0,0,383.074,198.052Z" transform="translate(-363.371 -180.387)"/></g></svg>