<svg xmlns="http://www.w3.org/2000/svg" width="39.891" height="23.46" viewBox="0 0 39.891 23.46"><defs><style>.a{fill:#fff;}</style></defs><path class="a" d="M48.014,229.075c-10.809,0-19.34-10.562-19.7-11.012a1.156,1.156,0,0,1,0-1.436c.363-.45,8.894-11.012,19.7-11.012S67.339,216.177,67.7,216.627a1.156,1.156,0,0,1,0,1.436C67.339,218.513,58.823,229.075,48.014,229.075ZM30.749,217.338c2.089,2.321,9.126,9.416,17.265,9.416s15.176-7.095,17.25-9.416c-2.075-2.307-9.111-9.4-17.25-9.4C39.846,207.936,32.824,215.031,30.749,217.338Z" transform="translate(-28.062 -205.615)"/><path class="a" d="M35.435,218.863a6.442,6.442,0,1,1,6.442-6.442A6.446,6.446,0,0,1,35.435,218.863Zm0-10.562a4.128,4.128,0,1,0,4.12,4.12A4.139,4.139,0,0,0,35.435,208.3Z" transform="translate(-15.482 -200.698)"/></svg>