<svg xmlns="http://www.w3.org/2000/svg" width="35.05" height="33.497" viewBox="0 0 35.05 33.497"><defs><style>.a{fill:rgba(255,255,255,0);stroke:#fff;}</style></defs><g transform="translate(0.5 0.5)"><g transform="translate(0 0)"><path class="a" d="M97.611,347.715a.53.53,0,0,1-.193-.038.5.5,0,0,1-.306-.461v-6.3A11.081,11.081,0,0,1,92.23,332.1c0-6.665,6.94-12.09,15.469-12.09s15.469,5.424,15.469,12.09-6.94,12.1-15.469,12.1a19.325,19.325,0,0,1-5.549-.8l-4.184,4.184A.516.516,0,0,1,97.611,347.715Zm.5-7.021v5.325l3.548-3.548a.5.5,0,0,1,.505-.125,18.192,18.192,0,0,0,5.537.848c7.981,0,14.472-4.976,14.472-11.1S115.68,321,107.7,321,93.228,325.979,93.228,332.1a10.17,10.17,0,0,0,4.67,8.162A.479.479,0,0,1,98.11,340.694Z" transform="translate(-92.23 -320.006)"/><g transform="translate(7.707 5.463)"><path class="a" d="M101.228,334.96a.5.5,0,0,1-.33-.119c-.256-.206-6.223-5.019-7.133-7.912a5.044,5.044,0,0,1,.374-4.227,3.658,3.658,0,0,1,2.787-1.783,4.955,4.955,0,0,1,4.3,1.746,4.947,4.947,0,0,1,4.3-1.746,3.668,3.668,0,0,1,2.787,1.783,5.045,5.045,0,0,1,.362,4.252c-.9,2.868-6.865,7.682-7.12,7.887A.5.5,0,0,1,101.228,334.96Zm-3.735-13.013a3.653,3.653,0,0,0-.443.025,2.667,2.667,0,0,0-2.008,1.278,4.025,4.025,0,0,0-.274,3.33c.642,2.051,4.608,5.63,6.459,7.164,1.852-1.534,5.817-5.113,6.447-7.133a4.016,4.016,0,0,0-.268-3.361,2.642,2.642,0,0,0-2-1.278,4.167,4.167,0,0,0-3.729,1.833.548.548,0,0,1-.9,0A4.221,4.221,0,0,0,97.493,321.947Z" transform="translate(-93.466 -320.882)"/></g></g><g transform="translate(10.762 14.186)"><path class="a" d="M112.773,340.592a.5.5,0,0,1-.355-.143l-3.367-3.373a15.631,15.631,0,0,1-4.489.642A13.934,13.934,0,0,1,94.08,333.39a.5.5,0,1,1,.748-.655,12.97,12.97,0,0,0,9.733,3.99,14.669,14.669,0,0,0,4.477-.686.5.5,0,0,1,.505.118l2.731,2.731v-4.134a.494.494,0,0,1,.206-.405,8.175,8.175,0,0,0,3.766-6.566,7.409,7.409,0,0,0-1.74-4.689.5.5,0,1,1,.773-.63,8.429,8.429,0,0,1,1.964,5.318,9.087,9.087,0,0,1-3.978,7.226v5.082a.494.494,0,0,1-.493.5Z" transform="translate(-93.956 -322.281)"/></g></g></svg>